<svg id="Layer_2" data-name="Layer 2" xmlns="http://www.w3.org/2000/svg" viewBox="0 0 505.75 67.74"><defs><style>.cls-1{fill:#fff}</style></defs><path class="cls-1" d="M84.9 76.45v-12H71.35a11.68 11.68 0 00-2.92.36 12 12 0 00-9.12 11.68v8.49H50v11.53h9.32v34.19h15V96.51H84.9V84.94H74.28v-8.49zm65.93 44.27C170.49 131 204.68 131 209.17 85.59c5.2-3.58 5.85-7.37 5.85-7.37a7.46 7.46 0 01-6.61 1.62c3.36-3.36 3.9-3.14 5.1-6.5-2.93 1.3-5.64 2.38-7 2.49-7.61-8.89-25.42-5.44-27 11.71-11-.11-18.54-6-26.13-13.55-1.13-1.71-2.74 13.94 4.33 18.11 0-.48-1.86.15-5.53-.76-1.38 4.92 6.44 12.83 9.44 13.12a26.83 26.83 0 01-4.23.65c-.76-.11 4.77 5.85 6.61 6.61s-4.45 7.87-12.74 9.2M301.68 126c11.64-3.09 27.85-26.11 29.89-42.7a11.26 11.26 0 00-.52-5.15c-4.94-14-20.8-7.43-25.53 6.88 0 .08.05.15.13.14 17.45-3.74 3.35 15.8 1.26 18.68-.08.11-2.28 3-4.61 1a4.47 4.47 0 01-1.4-2.44c-5.29-24.17-4.11-44.61-30-17.06-2.74 2.32.15 4.63 2.32 4.2s2.94-1.85 4.77-2.46c5.86-2 9.95 28.66 17.69 37.16a6 6 0 006 1.75zm122.57-31.32a11.75 11.75 0 00-13.32-3 12 12 0 00-4.18 3 11.75 11.75 0 1017.5 0zm-8.74 15.63a7.8 7.8 0 117.8-7.8 7.81 7.81 0 01-7.8 7.8z" transform="translate(-49.99 -64.41)"/><path class="cls-1" d="M428 94.68a14.75 14.75 0 11-25 0h-16.27v23.85A12.28 12.28 0 00399 130.81h33a12.28 12.28 0 0012.28-12.28V94.68zm4-21.41h-28.64v14.49h-3V73.27h-1v14.49h-3V73.55a9.63 9.63 0 00-1 .25v14h-3V75.17a12.27 12.27 0 00-5.71 10.37v6.14h18.78a14.69 14.69 0 0120 0h18.79v-6.14A12.27 12.27 0 00432 73.27zm7.27 12a2.7 2.7 0 01-2.7 2.7h-4.15a2.7 2.7 0 01-2.7-2.7v-4.16a2.7 2.7 0 012.7-2.7h4.15a2.7 2.7 0 012.7 2.7zm72.23 28.78s21.42 27.78 39.67 14.51a13.73 13.73 0 004.57-10.23s.27-2.35-2.91-3.18-10.78-3.87-10.78-3.87a4.3 4.3 0 00-5 1.8c-1.8 2.9-1.4 2.08-1.4 2.08s-.4 3.86-7.45.68-16.31-15.48-18.11-19.63 3.46-5.53 3.46-5.53 2.76-1.38 3.18-2.9S512 74.16 512 74.16s-.69-2.56-4.84-2.21-9.61 3.59-11.4 12.24 15.74 29.86 15.74 29.86z" transform="translate(-49.99 -64.41)"/></svg>