<svg width="96" height="26" fill="none" xmlns="http://www.w3.org/2000/svg"><path d="M48.002 2h-.005C42.485 2 38 6.485 38 12c0 2.188.705 4.215 1.904 5.861l-1.247 3.715 3.844-1.229A9.913 9.913 0 0048.003 22C53.515 22 58 17.514 58 12S53.516 2 48.002 2zm5.82 14.121c-.242.681-1.2 1.247-1.963 1.412-.523.11-1.205.2-3.503-.753-2.939-1.218-4.831-4.204-4.979-4.398-.14-.193-1.187-1.58-1.187-3.016 0-1.435.729-2.133 1.023-2.433.24-.247.64-.36 1.022-.36.124 0 .235.007.335.012.294.013.441.03.635.494.241.581.829 2.016.899 2.163.071.148.142.348.042.542-.093.2-.176.288-.324.458-.147.17-.287.3-.434.483-.136.159-.288.329-.118.623.17.287.758 1.246 1.622 2.016 1.117.993 2.022 1.311 2.345 1.446.242.1.53.076.706-.111.223-.242.5-.642.78-1.035.2-.283.453-.318.718-.218.27.094 1.699.8 1.993.947.294.147.487.217.559.34.07.124.07.706-.172 1.388zm27.811.742l-.364 5.026c.52 0 .746-.22 1.016-.483l2.441-2.291 5.059 3.637c.927.508 1.581.24 1.831-.838l3.32-15.275h.001c.295-1.347-.495-1.874-1.4-1.543l-19.516 7.336c-1.332.507-1.311 1.236-.226 1.566l4.99 1.524 11.59-7.12c.545-.354 1.04-.158.633.197l-9.375 8.264zM15.538 5.187H17.4V1.943c-.321-.044-1.426-.143-2.713-.143-2.685 0-4.524 1.689-4.524 4.793V9.45H7.2v3.626h2.963V22.2h3.633v-9.123h2.843l.45-3.626h-3.294V6.953c0-1.049.283-1.766 1.743-1.766z" fill="#000" opacity=".16"/></svg>